# xmcd
#
# Track frame offsets:
#	150
#	22837
#	44892
#	70650
#	86705
#	112500
#	131350
#	150575
#	163465
#	182075
#
# Disc length: 2722 seconds
#
# Revision: 1
# Processed by: cddbd v1.5.1PL0 Copyright (c) Steve Scherf et al.
# Submitted via: CDex 1.50Beta5
#
DISCID=7a0aa00a
DTITLE=椎名恵 - コレクション椎名恵 Disc 2
DYEAR=1989
DGENRE=Pop
TTITLE0=たぶん彼女も水の星座
TTITLE1=リア・ウィンドウにSummer Rain
TTITLE2=一日前のBirthday
TTITLE3=愛は眠らない
TTITLE4=彼女の選択
TTITLE5=LOVE IS ALL
TTITLE6=午後10時からの不在
TTITLE7=それから受話器を置いた
TTITLE8=IF YOU NEED
TTITLE9=Against
EXTD=
EXTT0=
EXTT1=
EXTT2=
EXTT3=
EXTT4=
EXTT5=
EXTT6=
EXTT7=
EXTT8=
EXTT9=
PLAYORDER=
